<mxfile host="Electron" modified="2023-08-14T14:43:20.232Z" agent="Mozilla/5.0 (Windows NT 10.0; Win64; x64) AppleWebKit/537.36 (KHTML, like Gecko) draw.io/21.6.8 Chrome/114.0.5735.289 Electron/25.5.0 Safari/537.36" etag="FwcdUztYexo18ibmgnOV" version="21.6.8" type="device" pages="7">
  <diagram name="12.2" id="hHgiHQd2AIpH9nzL_eUj">
    <mxGraphModel dx="880" dy="545" grid="1" gridSize="10" guides="1" tooltips="1" connect="1" arrows="1" fold="1" page="1" pageScale="1" pageWidth="1169" pageHeight="827" math="0" shadow="0">
      <root>
        <mxCell id="0" />
        <mxCell id="1" parent="0" />
        <mxCell id="3-TWVr6dcZsKVuEp-NB--1" value="P1" style="shape=folder;fontStyle=1;tabWidth=50;tabHeight=30;tabPosition=left;html=1;boundedLbl=1;labelInHeader=1;container=1;collapsible=0;recursiveResize=0;whiteSpace=wrap;" vertex="1" parent="1">
          <mxGeometry x="40" y="40" width="120" height="100" as="geometry" />
        </mxCell>
        <mxCell id="3-TWVr6dcZsKVuEp-NB--2" value="&lt;b&gt;A&lt;/b&gt;" style="html=1;whiteSpace=wrap;" vertex="1" parent="3-TWVr6dcZsKVuEp-NB--1">
          <mxGeometry width="50" height="30" relative="1" as="geometry">
            <mxPoint x="35" y="50" as="offset" />
          </mxGeometry>
        </mxCell>
        <mxCell id="3-TWVr6dcZsKVuEp-NB--3" value="P2" style="shape=folder;fontStyle=1;tabWidth=50;tabHeight=30;tabPosition=left;html=1;boundedLbl=1;labelInHeader=1;container=1;collapsible=0;recursiveResize=0;whiteSpace=wrap;" vertex="1" parent="1">
          <mxGeometry x="240" y="40" width="120" height="100" as="geometry" />
        </mxCell>
        <mxCell id="3-TWVr6dcZsKVuEp-NB--4" value="&lt;b&gt;A&lt;/b&gt;" style="html=1;whiteSpace=wrap;" vertex="1" parent="3-TWVr6dcZsKVuEp-NB--3">
          <mxGeometry width="50" height="30" relative="1" as="geometry">
            <mxPoint x="35" y="50" as="offset" />
          </mxGeometry>
        </mxCell>
        <mxCell id="3-TWVr6dcZsKVuEp-NB--5" value="«merge»" style="endArrow=open;startArrow=none;endFill=0;startFill=0;endSize=8;html=1;verticalAlign=bottom;dashed=1;labelBackgroundColor=none;rounded=0;entryX=0;entryY=0;entryDx=120;entryDy=65;entryPerimeter=0;exitX=0;exitY=0;exitDx=0;exitDy=65;exitPerimeter=0;" edge="1" parent="1" source="3-TWVr6dcZsKVuEp-NB--3" target="3-TWVr6dcZsKVuEp-NB--1">
          <mxGeometry width="160" relative="1" as="geometry">
            <mxPoint x="240" y="80" as="sourcePoint" />
            <mxPoint x="400" y="80" as="targetPoint" />
          </mxGeometry>
        </mxCell>
        <mxCell id="3-TWVr6dcZsKVuEp-NB--6" style="edgeStyle=orthogonalEdgeStyle;rounded=0;orthogonalLoop=1;jettySize=auto;html=1;exitX=0;exitY=0;exitDx=0;exitDy=65;exitPerimeter=0;entryX=0;entryY=0;entryDx=120;entryDy=65;entryPerimeter=0;labelBackgroundColor=none;endArrow=open;verticalAlign=bottom;startArrow=none;endFill=0;startFill=0;endSize=8;dashed=1;" edge="1" parent="1" source="3-TWVr6dcZsKVuEp-NB--8" target="3-TWVr6dcZsKVuEp-NB--3">
          <mxGeometry relative="1" as="geometry" />
        </mxCell>
        <mxCell id="3-TWVr6dcZsKVuEp-NB--7" value="«import»" style="edgeLabel;html=1;align=center;verticalAlign=middle;resizable=0;points=[];" vertex="1" connectable="0" parent="3-TWVr6dcZsKVuEp-NB--6">
          <mxGeometry x="-0.1" y="1" relative="1" as="geometry">
            <mxPoint x="-5" y="-16" as="offset" />
          </mxGeometry>
        </mxCell>
        <mxCell id="3-TWVr6dcZsKVuEp-NB--8" value="P3" style="shape=folder;fontStyle=1;tabWidth=50;tabHeight=30;tabPosition=left;html=1;boundedLbl=1;labelInHeader=1;container=1;collapsible=0;recursiveResize=0;whiteSpace=wrap;" vertex="1" parent="1">
          <mxGeometry x="440" y="40" width="240" height="100" as="geometry" />
        </mxCell>
        <mxCell id="3-TWVr6dcZsKVuEp-NB--9" value="&lt;b&gt;A&lt;/b&gt;" style="html=1;whiteSpace=wrap;" vertex="1" parent="3-TWVr6dcZsKVuEp-NB--8">
          <mxGeometry width="50" height="30" relative="1" as="geometry">
            <mxPoint x="35" y="50" as="offset" />
          </mxGeometry>
        </mxCell>
        <mxCell id="3-TWVr6dcZsKVuEp-NB--10" value="&lt;b&gt;SubA&lt;/b&gt;" style="html=1;whiteSpace=wrap;" vertex="1" parent="3-TWVr6dcZsKVuEp-NB--8">
          <mxGeometry width="50" height="30" relative="1" as="geometry">
            <mxPoint x="150" y="50" as="offset" />
          </mxGeometry>
        </mxCell>
        <mxCell id="3-TWVr6dcZsKVuEp-NB--11" style="edgeStyle=orthogonalEdgeStyle;rounded=0;orthogonalLoop=1;jettySize=auto;html=1;exitX=0;exitY=0.5;exitDx=0;exitDy=0;entryX=1;entryY=0.5;entryDx=0;entryDy=0;endArrow=blockThin;endFill=0;endSize=7;" edge="1" parent="1" source="3-TWVr6dcZsKVuEp-NB--10" target="3-TWVr6dcZsKVuEp-NB--9">
          <mxGeometry relative="1" as="geometry" />
        </mxCell>
        <mxCell id="3-TWVr6dcZsKVuEp-NB--12" value="&lt;span&gt;Figure 12.2 Illustration of the Meaning of Package Merge&lt;/span&gt;" style="text;html=1;align=left;verticalAlign=middle;resizable=0;points=[];autosize=1;strokeColor=none;fillColor=none;fontStyle=1" vertex="1" parent="1">
          <mxGeometry x="40" y="140" width="340" height="30" as="geometry" />
        </mxCell>
      </root>
    </mxGraphModel>
  </diagram>
  <diagram id="y17enu39GOCdyqhlr-ZZ" name="12.4">
    <mxGraphModel dx="880" dy="545" grid="1" gridSize="10" guides="1" tooltips="1" connect="1" arrows="1" fold="1" page="1" pageScale="1" pageWidth="1169" pageHeight="827" math="0" shadow="0">
      <root>
        <mxCell id="0" />
        <mxCell id="1" parent="0" />
        <mxCell id="UfU2foO1wUQ1DosMFcwQ-1" value="Target" style="shape=folder;fontStyle=1;spacingTop=10;tabWidth=40;tabHeight=14;tabPosition=left;html=1;whiteSpace=wrap;" vertex="1" parent="1">
          <mxGeometry width="80" height="50" as="geometry" />
        </mxCell>
        <mxCell id="UfU2foO1wUQ1DosMFcwQ-2" style="rounded=0;orthogonalLoop=1;jettySize=auto;html=1;entryX=0;entryY=0;entryDx=80;entryDy=32;entryPerimeter=0;dashed=1;exitX=0;exitY=0;exitDx=0;exitDy=32;exitPerimeter=0;" edge="1" parent="1" source="UfU2foO1wUQ1DosMFcwQ-4" target="UfU2foO1wUQ1DosMFcwQ-1">
          <mxGeometry relative="1" as="geometry" />
        </mxCell>
        <mxCell id="UfU2foO1wUQ1DosMFcwQ-3" value="«merge»" style="edgeLabel;html=1;align=center;verticalAlign=middle;resizable=0;points=[];" vertex="1" connectable="0" parent="UfU2foO1wUQ1DosMFcwQ-2">
          <mxGeometry x="0.025" y="2" relative="1" as="geometry">
            <mxPoint x="10" y="-20" as="offset" />
          </mxGeometry>
        </mxCell>
        <mxCell id="UfU2foO1wUQ1DosMFcwQ-4" value="Source" style="shape=folder;fontStyle=1;spacingTop=10;tabWidth=40;tabHeight=14;tabPosition=left;html=1;whiteSpace=wrap;" vertex="1" parent="1">
          <mxGeometry x="200" y="40" width="80" height="50" as="geometry" />
        </mxCell>
        <mxCell id="UfU2foO1wUQ1DosMFcwQ-5" value="&lt;span&gt;Figure 12.4 Notation for Package Merge&lt;/span&gt;" style="text;html=1;align=left;verticalAlign=middle;resizable=0;points=[];autosize=1;strokeColor=none;fillColor=none;fontStyle=1" vertex="1" parent="1">
          <mxGeometry y="90" width="250" height="30" as="geometry" />
        </mxCell>
      </root>
    </mxGraphModel>
  </diagram>
  <diagram id="f1ggnds_MVKpFVb-fmxB" name="12.5">
    <mxGraphModel dx="880" dy="545" grid="1" gridSize="10" guides="1" tooltips="1" connect="1" arrows="1" fold="1" page="1" pageScale="1" pageWidth="1169" pageHeight="827" math="0" shadow="0">
      <root>
        <mxCell id="0" />
        <mxCell id="1" parent="0" />
        <mxCell id="P6jTRHvAwwWjRajGx3Is-1" value="Types" style="shape=folder;fontStyle=1;spacingTop=10;tabWidth=40;tabHeight=14;tabPosition=left;html=1;whiteSpace=wrap;" vertex="1" parent="1">
          <mxGeometry y="20" width="80" height="60" as="geometry" />
        </mxCell>
        <mxCell id="P6jTRHvAwwWjRajGx3Is-2" value="Types" style="shape=folder;fontStyle=1;spacingTop=10;tabWidth=40;tabHeight=14;tabPosition=left;html=1;whiteSpace=wrap;" vertex="1" parent="1">
          <mxGeometry x="560" y="10" width="80" height="60" as="geometry" />
        </mxCell>
        <mxCell id="P6jTRHvAwwWjRajGx3Is-3" style="edgeStyle=orthogonalEdgeStyle;rounded=0;orthogonalLoop=1;jettySize=auto;html=1;exitX=0.5;exitY=0;exitDx=0;exitDy=0;entryX=0.5;entryY=1;entryDx=0;entryDy=0;entryPerimeter=0;endArrow=circlePlus;endFill=0;endSize=4;" edge="1" parent="1" source="P6jTRHvAwwWjRajGx3Is-4" target="P6jTRHvAwwWjRajGx3Is-2">
          <mxGeometry relative="1" as="geometry" />
        </mxCell>
        <mxCell id="P6jTRHvAwwWjRajGx3Is-4" value="&lt;b&gt;Shape&lt;/b&gt;" style="whiteSpace=wrap;html=1;" vertex="1" parent="1">
          <mxGeometry x="500" y="130" width="80" height="40" as="geometry" />
        </mxCell>
        <mxCell id="P6jTRHvAwwWjRajGx3Is-5" style="edgeStyle=orthogonalEdgeStyle;rounded=0;orthogonalLoop=1;jettySize=auto;html=1;exitX=0.5;exitY=0;exitDx=0;exitDy=0;endArrow=circlePlus;endFill=0;endSize=4;" edge="1" parent="1" source="P6jTRHvAwwWjRajGx3Is-6" target="P6jTRHvAwwWjRajGx3Is-2">
          <mxGeometry relative="1" as="geometry" />
        </mxCell>
        <mxCell id="P6jTRHvAwwWjRajGx3Is-6" value="&lt;b&gt;Point&lt;/b&gt;" style="whiteSpace=wrap;html=1;" vertex="1" parent="1">
          <mxGeometry x="620" y="130" width="80" height="40" as="geometry" />
        </mxCell>
        <mxCell id="P6jTRHvAwwWjRajGx3Is-7" value="Types&lt;br&gt;{url=http://www.abc.com/models/Types}" style="shape=folder;fontStyle=1;tabWidth=240;tabHeight=30;tabPosition=left;html=1;boundedLbl=1;labelInHeader=1;container=1;collapsible=0;recursiveResize=0;whiteSpace=wrap;" vertex="1" parent="1">
          <mxGeometry x="160" width="280" height="100" as="geometry" />
        </mxCell>
        <mxCell id="P6jTRHvAwwWjRajGx3Is-8" value="&lt;b&gt;Integer&lt;/b&gt;" style="html=1;whiteSpace=wrap;" vertex="1" parent="P6jTRHvAwwWjRajGx3Is-7">
          <mxGeometry width="60" height="30" relative="1" as="geometry">
            <mxPoint x="20" y="40" as="offset" />
          </mxGeometry>
        </mxCell>
        <mxCell id="P6jTRHvAwwWjRajGx3Is-9" value="&lt;b&gt;Time&lt;/b&gt;" style="html=1;whiteSpace=wrap;" vertex="1" parent="P6jTRHvAwwWjRajGx3Is-7">
          <mxGeometry width="50" height="30" relative="1" as="geometry">
            <mxPoint x="200" y="60" as="offset" />
          </mxGeometry>
        </mxCell>
        <mxCell id="P6jTRHvAwwWjRajGx3Is-10" value="&lt;b&gt;Figure 12.5 Examples of a Package with Members&lt;/b&gt;" style="text;html=1;align=left;verticalAlign=middle;resizable=0;points=[];autosize=1;strokeColor=none;fillColor=none;" vertex="1" parent="1">
          <mxGeometry y="170" width="310" height="30" as="geometry" />
        </mxCell>
      </root>
    </mxGraphModel>
  </diagram>
  <diagram id="vxHWTVL__HDU3aFXCOiE" name="12.6">
    <mxGraphModel dx="880" dy="545" grid="1" gridSize="10" guides="1" tooltips="1" connect="1" arrows="1" fold="1" page="1" pageScale="1" pageWidth="1169" pageHeight="827" math="0" shadow="0">
      <root>
        <mxCell id="0" />
        <mxCell id="1" parent="0" />
        <mxCell id="Cmfkf_pPAO8rMj9OgB_W-1" style="rounded=0;orthogonalLoop=1;jettySize=auto;html=1;exitX=0;exitY=0;exitDx=120;exitDy=30;exitPerimeter=0;entryX=0.75;entryY=1;entryDx=0;entryDy=0;entryPerimeter=0;labelBackgroundColor=none;endArrow=open;verticalAlign=bottom;startArrow=none;endFill=0;startFill=0;endSize=8;dashed=1;" edge="1" parent="1" source="Cmfkf_pPAO8rMj9OgB_W-3" target="Cmfkf_pPAO8rMj9OgB_W-10">
          <mxGeometry relative="1" as="geometry" />
        </mxCell>
        <mxCell id="Cmfkf_pPAO8rMj9OgB_W-2" value="«merge»" style="edgeLabel;html=1;align=center;verticalAlign=middle;resizable=0;points=[];" vertex="1" connectable="0" parent="Cmfkf_pPAO8rMj9OgB_W-1">
          <mxGeometry x="-0.5597" y="-1" relative="1" as="geometry">
            <mxPoint x="26" y="11" as="offset" />
          </mxGeometry>
        </mxCell>
        <mxCell id="Cmfkf_pPAO8rMj9OgB_W-3" value="S" style="shape=folder;fontStyle=1;tabWidth=50;tabHeight=30;tabPosition=left;html=1;boundedLbl=1;labelInHeader=1;container=1;collapsible=0;recursiveResize=0;whiteSpace=wrap;" vertex="1" parent="1">
          <mxGeometry x="191" y="170" width="190" height="160" as="geometry" />
        </mxCell>
        <mxCell id="Cmfkf_pPAO8rMj9OgB_W-4" value="&lt;b&gt;D&lt;/b&gt;" style="html=1;whiteSpace=wrap;" vertex="1" parent="Cmfkf_pPAO8rMj9OgB_W-3">
          <mxGeometry width="50" height="30" relative="1" as="geometry">
            <mxPoint x="20" y="40" as="offset" />
          </mxGeometry>
        </mxCell>
        <mxCell id="Cmfkf_pPAO8rMj9OgB_W-5" value="P" style="shape=folder;fontStyle=1;tabWidth=50;tabHeight=30;tabPosition=left;html=1;boundedLbl=1;labelInHeader=1;container=1;collapsible=0;recursiveResize=0;whiteSpace=wrap;" vertex="1" parent="1">
          <mxGeometry x="41" y="10" width="110" height="190" as="geometry" />
        </mxCell>
        <mxCell id="Cmfkf_pPAO8rMj9OgB_W-6" value="&lt;b&gt;A&lt;/b&gt;" style="html=1;whiteSpace=wrap;" vertex="1" parent="Cmfkf_pPAO8rMj9OgB_W-5">
          <mxGeometry width="50" height="30" relative="1" as="geometry">
            <mxPoint x="30" y="40" as="offset" />
          </mxGeometry>
        </mxCell>
        <mxCell id="Cmfkf_pPAO8rMj9OgB_W-7" value="&lt;b&gt;B&lt;/b&gt;" style="html=1;whiteSpace=wrap;" vertex="1" parent="Cmfkf_pPAO8rMj9OgB_W-5">
          <mxGeometry width="50" height="30" relative="1" as="geometry">
            <mxPoint x="30" y="145" as="offset" />
          </mxGeometry>
        </mxCell>
        <mxCell id="Cmfkf_pPAO8rMj9OgB_W-9" style="edgeStyle=orthogonalEdgeStyle;rounded=0;orthogonalLoop=1;jettySize=auto;html=1;entryX=0.5;entryY=1;entryDx=0;entryDy=0;endArrow=blockThin;endFill=0;endSize=12;" edge="1" parent="1" source="Cmfkf_pPAO8rMj9OgB_W-7" target="Cmfkf_pPAO8rMj9OgB_W-6">
          <mxGeometry relative="1" as="geometry" />
        </mxCell>
        <mxCell id="Cmfkf_pPAO8rMj9OgB_W-10" value="Q" style="shape=folder;fontStyle=1;tabWidth=50;tabHeight=30;tabPosition=left;html=1;boundedLbl=1;labelInHeader=1;container=1;collapsible=0;recursiveResize=0;whiteSpace=wrap;" vertex="1" parent="1">
          <mxGeometry x="191" y="10" width="190" height="80" as="geometry" />
        </mxCell>
        <mxCell id="Cmfkf_pPAO8rMj9OgB_W-11" value="&lt;b&gt;A&lt;/b&gt;" style="html=1;whiteSpace=wrap;" vertex="1" parent="Cmfkf_pPAO8rMj9OgB_W-10">
          <mxGeometry width="50" height="30" relative="1" as="geometry">
            <mxPoint x="20" y="40" as="offset" />
          </mxGeometry>
        </mxCell>
        <mxCell id="Cmfkf_pPAO8rMj9OgB_W-12" value="&lt;b&gt;C&lt;/b&gt;" style="html=1;whiteSpace=wrap;" vertex="1" parent="Cmfkf_pPAO8rMj9OgB_W-10">
          <mxGeometry width="50" height="30" relative="1" as="geometry">
            <mxPoint x="120" y="40" as="offset" />
          </mxGeometry>
        </mxCell>
        <mxCell id="Cmfkf_pPAO8rMj9OgB_W-13" value="&lt;b&gt;A&lt;/b&gt;" style="html=1;whiteSpace=wrap;" vertex="1" parent="Cmfkf_pPAO8rMj9OgB_W-10">
          <mxGeometry width="50" height="30" relative="1" as="geometry">
            <mxPoint x="20" y="280" as="offset" />
          </mxGeometry>
        </mxCell>
        <mxCell id="Cmfkf_pPAO8rMj9OgB_W-14" value="&lt;b&gt;C&lt;/b&gt;" style="html=1;whiteSpace=wrap;" vertex="1" parent="Cmfkf_pPAO8rMj9OgB_W-10">
          <mxGeometry width="50" height="30" relative="1" as="geometry">
            <mxPoint x="120" y="280" as="offset" />
          </mxGeometry>
        </mxCell>
        <mxCell id="Cmfkf_pPAO8rMj9OgB_W-8" style="edgeStyle=orthogonalEdgeStyle;rounded=0;orthogonalLoop=1;jettySize=auto;html=1;exitX=1;exitY=0.5;exitDx=0;exitDy=0;entryX=0;entryY=0.5;entryDx=0;entryDy=0;endArrow=none;endFill=0;" edge="1" parent="Cmfkf_pPAO8rMj9OgB_W-10" source="Cmfkf_pPAO8rMj9OgB_W-13" target="Cmfkf_pPAO8rMj9OgB_W-14">
          <mxGeometry relative="1" as="geometry" />
        </mxCell>
        <mxCell id="Cmfkf_pPAO8rMj9OgB_W-15" style="edgeStyle=orthogonalEdgeStyle;rounded=0;orthogonalLoop=1;jettySize=auto;html=1;exitX=1;exitY=0.5;exitDx=0;exitDy=0;entryX=0;entryY=0.5;entryDx=0;entryDy=0;endArrow=none;endFill=0;" edge="1" parent="1" source="Cmfkf_pPAO8rMj9OgB_W-11" target="Cmfkf_pPAO8rMj9OgB_W-12">
          <mxGeometry relative="1" as="geometry" />
        </mxCell>
        <mxCell id="Cmfkf_pPAO8rMj9OgB_W-16" style="rounded=0;orthogonalLoop=1;jettySize=auto;html=1;exitX=0;exitY=0;exitDx=80;exitDy=30;exitPerimeter=0;entryX=0.5;entryY=1;entryDx=0;entryDy=0;entryPerimeter=0;endArrow=open;startArrow=none;endFill=0;startFill=0;endSize=8;verticalAlign=bottom;dashed=1;labelBackgroundColor=none;" edge="1" parent="1" source="Cmfkf_pPAO8rMj9OgB_W-20" target="Cmfkf_pPAO8rMj9OgB_W-5">
          <mxGeometry relative="1" as="geometry" />
        </mxCell>
        <mxCell id="Cmfkf_pPAO8rMj9OgB_W-17" value="«merge»" style="edgeLabel;html=1;align=center;verticalAlign=middle;resizable=0;points=[];" vertex="1" connectable="0" parent="Cmfkf_pPAO8rMj9OgB_W-16">
          <mxGeometry x="0.1544" y="1" relative="1" as="geometry">
            <mxPoint x="-30" as="offset" />
          </mxGeometry>
        </mxCell>
        <mxCell id="Cmfkf_pPAO8rMj9OgB_W-18" style="rounded=0;orthogonalLoop=1;jettySize=auto;html=1;exitX=0;exitY=0;exitDx=80;exitDy=30;exitPerimeter=0;entryX=0.25;entryY=1;entryDx=0;entryDy=0;entryPerimeter=0;labelBackgroundColor=none;endArrow=open;verticalAlign=bottom;startArrow=none;endFill=0;startFill=0;endSize=8;dashed=1;" edge="1" parent="1" source="Cmfkf_pPAO8rMj9OgB_W-20" target="Cmfkf_pPAO8rMj9OgB_W-10">
          <mxGeometry relative="1" as="geometry" />
        </mxCell>
        <mxCell id="Cmfkf_pPAO8rMj9OgB_W-19" value="«merge»" style="edgeLabel;html=1;align=center;verticalAlign=middle;resizable=0;points=[];" vertex="1" connectable="0" parent="Cmfkf_pPAO8rMj9OgB_W-18">
          <mxGeometry x="0.6323" relative="1" as="geometry">
            <mxPoint x="-30" as="offset" />
          </mxGeometry>
        </mxCell>
        <mxCell id="Cmfkf_pPAO8rMj9OgB_W-20" value="R" style="shape=folder;fontStyle=1;tabWidth=50;tabHeight=30;tabPosition=left;html=1;boundedLbl=1;labelInHeader=1;container=1;collapsible=0;recursiveResize=0;whiteSpace=wrap;" vertex="1" parent="1">
          <mxGeometry x="41" y="250" width="110" height="80" as="geometry" />
        </mxCell>
        <mxCell id="Cmfkf_pPAO8rMj9OgB_W-21" value="&lt;b&gt;A&lt;/b&gt;" style="html=1;whiteSpace=wrap;" vertex="1" parent="Cmfkf_pPAO8rMj9OgB_W-20">
          <mxGeometry width="50" height="30" relative="1" as="geometry">
            <mxPoint x="30" y="40" as="offset" />
          </mxGeometry>
        </mxCell>
        <mxCell id="Cmfkf_pPAO8rMj9OgB_W-22" style="edgeStyle=orthogonalEdgeStyle;rounded=0;orthogonalLoop=1;jettySize=auto;html=1;exitX=0.5;exitY=0;exitDx=0;exitDy=0;entryX=0.5;entryY=1;entryDx=0;entryDy=0;endArrow=blockThin;endFill=0;endSize=12;" edge="1" parent="1" source="Cmfkf_pPAO8rMj9OgB_W-13" target="Cmfkf_pPAO8rMj9OgB_W-4">
          <mxGeometry relative="1" as="geometry" />
        </mxCell>
        <mxCell id="Cmfkf_pPAO8rMj9OgB_W-23" value="&lt;b&gt;Figure 12.6 Simple Example of Package Merge&lt;/b&gt;" style="text;html=1;align=left;verticalAlign=middle;resizable=0;points=[];autosize=1;strokeColor=none;fillColor=none;" vertex="1" parent="1">
          <mxGeometry x="41" y="330" width="290" height="30" as="geometry" />
        </mxCell>
      </root>
    </mxGraphModel>
  </diagram>
  <diagram id="9KbjBThLFpSfIffjiRam" name="12.8">
    <mxGraphModel dx="880" dy="545" grid="1" gridSize="10" guides="1" tooltips="1" connect="1" arrows="1" fold="1" page="1" pageScale="1" pageWidth="1169" pageHeight="827" math="0" shadow="0">
      <root>
        <mxCell id="0" />
        <mxCell id="1" parent="0" />
        <mxCell id="TwOtpEMIa7Dd6c-VsLTn-1" value="R" style="shape=folder;fontStyle=1;tabWidth=60;tabHeight=20;tabPosition=left;html=1;boundedLbl=1;whiteSpace=wrap;" vertex="1" parent="1">
          <mxGeometry width="120" height="80" as="geometry" />
        </mxCell>
        <mxCell id="TwOtpEMIa7Dd6c-VsLTn-2" value="S" style="shape=folder;fontStyle=1;tabWidth=60;tabHeight=20;tabPosition=left;html=1;boundedLbl=1;whiteSpace=wrap;" vertex="1" parent="1">
          <mxGeometry x="10" y="140" width="120" height="80" as="geometry" />
        </mxCell>
        <mxCell id="TwOtpEMIa7Dd6c-VsLTn-3" style="rounded=0;orthogonalLoop=1;jettySize=auto;html=1;entryX=0;entryY=0;entryDx=120;entryDy=65;entryPerimeter=0;exitX=0;exitY=0;exitDx=0;exitDy=35;exitPerimeter=0;endArrow=open;startArrow=none;endFill=0;startFill=0;endSize=8;verticalAlign=bottom;dashed=1;labelBackgroundColor=none;" edge="1" parent="1" source="TwOtpEMIa7Dd6c-VsLTn-7" target="TwOtpEMIa7Dd6c-VsLTn-1">
          <mxGeometry relative="1" as="geometry" />
        </mxCell>
        <mxCell id="TwOtpEMIa7Dd6c-VsLTn-4" value="«merge»" style="edgeLabel;html=1;align=center;verticalAlign=middle;resizable=0;points=[];" vertex="1" connectable="0" parent="TwOtpEMIa7Dd6c-VsLTn-3">
          <mxGeometry x="0.4415" y="-3" relative="1" as="geometry">
            <mxPoint x="45" y="-2" as="offset" />
          </mxGeometry>
        </mxCell>
        <mxCell id="TwOtpEMIa7Dd6c-VsLTn-5" style="rounded=0;orthogonalLoop=1;jettySize=auto;html=1;exitX=0;exitY=0;exitDx=0;exitDy=65;exitPerimeter=0;entryX=0;entryY=0;entryDx=120;entryDy=50;entryPerimeter=0;labelBackgroundColor=none;endArrow=open;verticalAlign=bottom;startArrow=none;endFill=0;startFill=0;endSize=8;dashed=1;" edge="1" parent="1" source="TwOtpEMIa7Dd6c-VsLTn-7" target="TwOtpEMIa7Dd6c-VsLTn-2">
          <mxGeometry relative="1" as="geometry" />
        </mxCell>
        <mxCell id="TwOtpEMIa7Dd6c-VsLTn-6" value="«merge»" style="edgeLabel;html=1;align=center;verticalAlign=middle;resizable=0;points=[];fontSize=11;fontFamily=Helvetica;fontColor=default;" vertex="1" connectable="0" parent="TwOtpEMIa7Dd6c-VsLTn-5">
          <mxGeometry x="0.0271" y="2" relative="1" as="geometry">
            <mxPoint x="10" y="10" as="offset" />
          </mxGeometry>
        </mxCell>
        <mxCell id="TwOtpEMIa7Dd6c-VsLTn-7" value="T" style="shape=folder;fontStyle=1;tabWidth=60;tabHeight=20;tabPosition=left;html=1;boundedLbl=1;whiteSpace=wrap;" vertex="1" parent="1">
          <mxGeometry x="240" y="100" width="120" height="80" as="geometry" />
        </mxCell>
        <mxCell id="TwOtpEMIa7Dd6c-VsLTn-8" value="&lt;b&gt;Figure 12.8 Introducing Additional Package Merges&lt;/b&gt;" style="text;html=1;align=left;verticalAlign=middle;resizable=0;points=[];autosize=1;strokeColor=none;fillColor=none;fontSize=11;fontFamily=Helvetica;fontColor=default;" vertex="1" parent="1">
          <mxGeometry y="220" width="290" height="30" as="geometry" />
        </mxCell>
      </root>
    </mxGraphModel>
  </diagram>
  <diagram id="xAdDrFNNXK0w5N7ZEG43" name="12.10">
    <mxGraphModel dx="880" dy="545" grid="1" gridSize="10" guides="1" tooltips="1" connect="1" arrows="1" fold="1" page="1" pageScale="1" pageWidth="1169" pageHeight="827" math="0" shadow="0">
      <root>
        <mxCell id="0" />
        <mxCell id="1" parent="0" />
        <mxCell id="eWqc-seD739olZAIVL7B-1" style="edgeStyle=none;shape=connector;rounded=0;orthogonalLoop=1;jettySize=auto;html=1;dashed=1;labelBackgroundColor=none;strokeColor=default;fontFamily=Helvetica;fontSize=11;fontColor=default;startArrow=none;startFill=0;endArrow=open;endFill=0;endSize=8;" edge="1" parent="1" source="eWqc-seD739olZAIVL7B-2" target="eWqc-seD739olZAIVL7B-4">
          <mxGeometry relative="1" as="geometry" />
        </mxCell>
        <mxCell id="eWqc-seD739olZAIVL7B-2" value="Client tier" style="shape=folder;fontStyle=1;tabWidth=30;tabHeight=20;tabPosition=left;html=1;boundedLbl=1;folderSymbol=triangle;whiteSpace=wrap;fontFamily=Helvetica;fontSize=11;fontColor=default;" vertex="1" parent="1">
          <mxGeometry width="120" height="80" as="geometry" />
        </mxCell>
        <mxCell id="eWqc-seD739olZAIVL7B-3" style="edgeStyle=none;shape=connector;rounded=0;orthogonalLoop=1;jettySize=auto;html=1;dashed=1;labelBackgroundColor=none;strokeColor=default;fontFamily=Helvetica;fontSize=11;fontColor=default;startArrow=none;startFill=0;endArrow=open;endFill=0;endSize=8;" edge="1" parent="1" source="eWqc-seD739olZAIVL7B-4" target="eWqc-seD739olZAIVL7B-5">
          <mxGeometry relative="1" as="geometry" />
        </mxCell>
        <mxCell id="eWqc-seD739olZAIVL7B-4" value="Business tier" style="shape=folder;fontStyle=1;tabWidth=30;tabHeight=20;tabPosition=left;html=1;boundedLbl=1;folderSymbol=triangle;whiteSpace=wrap;fontFamily=Helvetica;fontSize=11;fontColor=default;" vertex="1" parent="1">
          <mxGeometry x="200" width="120" height="80" as="geometry" />
        </mxCell>
        <mxCell id="eWqc-seD739olZAIVL7B-5" value="Data tier" style="shape=folder;fontStyle=1;tabWidth=30;tabHeight=20;tabPosition=left;html=1;boundedLbl=1;folderSymbol=triangle;whiteSpace=wrap;fontFamily=Helvetica;fontSize=11;fontColor=default;" vertex="1" parent="1">
          <mxGeometry x="400" width="120" height="80" as="geometry" />
        </mxCell>
        <mxCell id="eWqc-seD739olZAIVL7B-6" value="&lt;b&gt;Figure 12.10 Three Models Representing Parts of a System&lt;/b&gt;" style="text;html=1;align=left;verticalAlign=middle;resizable=0;points=[];autosize=1;strokeColor=none;fillColor=none;fontSize=11;fontFamily=Helvetica;fontColor=default;" vertex="1" parent="1">
          <mxGeometry y="80" width="330" height="30" as="geometry" />
        </mxCell>
      </root>
    </mxGraphModel>
  </diagram>
  <diagram id="wFJtoBzV3pLr9S4ngLHB" name="12.11">
    <mxGraphModel dx="880" dy="545" grid="1" gridSize="10" guides="1" tooltips="1" connect="1" arrows="1" fold="1" page="1" pageScale="1" pageWidth="1169" pageHeight="827" math="0" shadow="0">
      <root>
        <mxCell id="0" />
        <mxCell id="1" parent="0" />
        <mxCell id="bJxj-uqQRr3ph6zcMe3n-1" value="&lt;span style=&quot;font-weight: normal;&quot;&gt;«model»&lt;br&gt;OrderEntry&lt;/span&gt;" style="shape=folder;fontStyle=1;tabWidth=110;tabHeight=30;tabPosition=left;html=1;boundedLbl=1;labelInHeader=1;container=1;collapsible=0;whiteSpace=wrap;fontFamily=Helvetica;fontSize=11;fontColor=default;" vertex="1" parent="1">
          <mxGeometry x="40" y="10" width="360" height="170" as="geometry" />
        </mxCell>
        <mxCell id="bJxj-uqQRr3ph6zcMe3n-2" value="" style="html=1;strokeColor=none;resizeWidth=1;resizeHeight=1;fillColor=none;part=1;connectable=0;allowArrows=0;deletable=0;whiteSpace=wrap;fontFamily=Helvetica;fontSize=11;fontColor=default;" vertex="1" parent="bJxj-uqQRr3ph6zcMe3n-1">
          <mxGeometry width="360" height="149.6" relative="1" as="geometry">
            <mxPoint y="30" as="offset" />
          </mxGeometry>
        </mxCell>
        <mxCell id="bJxj-uqQRr3ph6zcMe3n-3" value="&lt;span style=&quot;font-weight: normal;&quot;&gt;Analysis&lt;br&gt;Model&lt;/span&gt;" style="shape=folder;fontStyle=1;tabWidth=40;tabHeight=20;tabPosition=left;html=1;boundedLbl=1;folderSymbol=triangle;whiteSpace=wrap;fontFamily=Helvetica;fontSize=11;fontColor=default;" vertex="1" parent="bJxj-uqQRr3ph6zcMe3n-1">
          <mxGeometry x="20" y="50" width="120" height="90" as="geometry" />
        </mxCell>
        <mxCell id="bJxj-uqQRr3ph6zcMe3n-4" value="&lt;span style=&quot;font-weight: normal;&quot;&gt;Design&lt;br&gt;Model&lt;/span&gt;" style="shape=folder;fontStyle=1;tabWidth=40;tabHeight=20;tabPosition=left;html=1;boundedLbl=1;folderSymbol=triangle;whiteSpace=wrap;fontFamily=Helvetica;fontSize=11;fontColor=default;" vertex="1" parent="bJxj-uqQRr3ph6zcMe3n-1">
          <mxGeometry x="220" y="50" width="120" height="90" as="geometry" />
        </mxCell>
        <mxCell id="bJxj-uqQRr3ph6zcMe3n-5" value="&lt;b&gt;Figure 12.11 Two Views of One System Collected in a Container Model&lt;/b&gt;" style="text;html=1;align=left;verticalAlign=middle;resizable=0;points=[];autosize=1;strokeColor=none;fillColor=none;fontSize=11;fontFamily=Helvetica;fontColor=default;" vertex="1" parent="1">
          <mxGeometry x="40" y="180" width="390" height="30" as="geometry" />
        </mxCell>
      </root>
    </mxGraphModel>
  </diagram>
</mxfile>
